# 3ds Max Wavefront OBJ Exporter v0.97b - (c)2007 guruware
# Filchier créé : 07.02.2014 08:54:27

mtllib transeptSudBox.mtl

#
# object Bo_te001
#

v  6.0000 11.5000 22.0000
v  -6.0000 11.5000 22.0000
v  -6.0000 11.5000 -22.0000
v  6.0000 11.5000 -22.0000
v  6.0000 -11.5000 22.0000
v  6.0000 -11.5000 -22.0000
v  -6.0000 -11.5000 -22.0000
v  -6.0000 -11.5000 22.0000
# 8 vertices

vn 0.0000 -1.0000 -0.0000
vn 0.0000 1.0000 0.0000
vn 0.0000 -0.0000 1.0000
vn -1.0000 0.0000 0.0000
vn 0.0000 0.0000 -1.0000
vn 1.0000 0.0000 0.0000
# 6 vertex normals

vt 0.4915 0.7459 0.0000
vt 0.3100 0.7459 0.0000
vt 0.3100 0.2444 0.0000
vt 0.4915 0.2444 0.0000
vt 0.7929 0.7455 0.0000
vt 0.7929 0.2431 0.0000
vt 0.9995 0.2431 0.0000
vt 0.9995 0.7455 0.0000
vt 0.4923 0.0013 0.0000
vt 0.4923 0.2453 0.0000
vt 0.3127 0.2453 0.0000
vt 0.3127 0.0013 0.0000
vt 0.7925 0.7456 0.0000
vt 0.4914 0.7456 0.0000
vt 0.4914 0.2403 0.0000
vt 0.7925 0.2403 0.0000
vt 0.3061 1.0004 0.0000
vt 0.3061 0.7445 0.0000
vt 0.4940 0.7445 0.0000
vt 0.4940 1.0004 0.0000
vt -0.0002 0.2477 0.0000
vt 0.3111 0.2477 0.0000
vt 0.3111 0.7428 0.0000
vt -0.0002 0.7428 0.0000
# 24 texture coords

g Bo_te001
usemtl 01___Default
f 1/1/1 2/2/1 3/3/1 
f 3/3/1 4/4/1 1/1/1 
f 5/5/2 6/6/2 7/7/2 
f 7/7/2 8/8/2 5/5/2 
f 6/9/3 4/10/3 3/11/3 
f 3/11/3 7/12/3 6/9/3 
f 5/13/4 1/14/4 4/15/4 
f 4/15/4 6/16/4 5/13/4 
f 8/17/5 2/18/5 1/19/5 
f 1/19/5 5/20/5 8/17/5 
f 7/21/6 3/22/6 2/23/6 
f 2/23/6 8/24/6 7/21/6 
# 12 faces

